<svg width="300" height="300" viewBox="0 0 300 300" fill="none" xmlns="http://www.w3.org/2000/svg">
<path d="M241.888 130L219.694 130L211.194 115.313L230.888 115.313L241.888 130Z" fill="#9B390F"/>
<path d="M218.388 173V130H241.888V173H218.388Z" fill="#90350E"/>
<path d="M166.388 237L166.388 187.394L158.888 187.395L158.888 224.333L166.388 237Z" fill="#70290C"/>
<path d="M200.886 237.026L200.888 187.395L166.388 187L166.388 237.026L200.886 237.026Z" fill="#6D280A"/>
<path d="M116.888 237L116.888 187.086L109.388 187.086L109.388 223L116.888 237Z" fill="#70290C"/>
<path d="M116.888 237V191H151.888V237H116.888Z" fill="#6D280A"/>
<path d="M100.888 135L73.3882 88V155.5L100.888 206V135Z" fill="#792F0F"/>
<path d="M199.388 88L233.888 135H100.74L73.3882 88H199.388Z" fill="#7E2F0D"/>
<path d="M100.751 135H234.388L229.388 204.5L100.751 206V135Z" fill="#762E0F"/>
<path d="M123.888 86L111.388 65.5V99.5L124.888 121.5L123.888 86Z" fill="#83320F"/>
<path d="M175.649 65.5L190.388 86H123.888L111.388 65.5H175.649Z" fill="#9B390F"/>
<path d="M123.888 86H190.392L190.888 122L124.881 121.493L123.888 86Z" fill="#91350E"/>
<path d="M160.222 62.7879L157.888 75H164.499H171.888L169.555 62.7879L164.888 62L160.222 62.7879Z" fill="#3E1808"/>
<path d="M143.388 62.9697L145.888 78H138.805H130.888L133.388 62.9697L138.388 62L143.388 62.9697Z" fill="#3E1808"/>
<path d="M66.1938 172.993V129.993H89.6938V172.993H66.1938Z" fill="#90350E"/>
<path d="M58.1938 157.759V115.333L66.1938 129.993V172.993L58.1938 157.759Z" fill="#83320F"/>
<path d="M58.1939 115.34L81.1939 115.307L89.6939 129.993L66.1939 129.993L58.1939 115.34Z" fill="#9B390F"/>
</svg>
