<svg width="300" height="272" viewBox="0 0 300 272" fill="none" xmlns="http://www.w3.org/2000/svg">
<path d="M58.1938 130L80.3877 130L88.8877 115.313L69.1938 115.313L58.1938 130Z" fill="#9B390F"/>
<path d="M81.6938 173V130H58.1938V173H81.6938Z" fill="#90350E"/>
<path d="M133.694 237L133.694 187.394L141.194 187.395L141.194 224.333L133.694 237Z" fill="#70290C"/>
<path d="M99.1956 237.026L99.1938 187.395L133.694 187L133.694 237.026L99.1956 237.026Z" fill="#6D280A"/>
<path d="M183.194 237L183.194 187.086L190.694 187.086L190.694 223L183.194 237Z" fill="#70290C"/>
<path d="M183.194 237V191H148.194V237H183.194Z" fill="#6D280A"/>
<path d="M199.194 135L226.694 88V155.5L199.194 206V135Z" fill="#792F0F"/>
<path d="M100.694 88L66.1938 135H199.342L226.694 88H100.694Z" fill="#7E2F0D"/>
<path d="M199.33 135H65.6938L70.6938 204.5L199.33 206V135Z" fill="#762E0F"/>
<path d="M176.194 86L188.694 65.5V99.5L175.194 121.5L176.194 86Z" fill="#83320F"/>
<path d="M124.432 65.5L109.694 86H176.194L188.694 65.5H124.432Z" fill="#9B390F"/>
<path d="M176.194 86H109.69L109.194 122L175.201 121.493L176.194 86Z" fill="#91350E"/>
<path d="M139.86 62.7879L142.194 75H135.583H128.194L130.527 62.7879L135.194 62L139.86 62.7879Z" fill="#3E1808"/>
<path d="M156.694 62.9697L154.194 78H161.277H169.194L166.694 62.9697L161.694 62L156.694 62.9697Z" fill="#3E1808"/>
<path d="M233.888 172.993V129.993H210.388V172.993H233.888Z" fill="#90350E"/>
<path d="M241.888 157.759V115.333L233.888 129.993V172.993L241.888 157.759Z" fill="#83320F"/>
<path d="M241.888 115.34L218.888 115.307L210.388 129.993L233.888 129.993L241.888 115.34Z" fill="#9B390F"/>
</svg>
