<svg width="300" height="288" viewBox="0 0 300 288" fill="none" xmlns="http://www.w3.org/2000/svg">
<path d="M232.8 100.43L208 100.43L208.4 116.153L234 116.153L232.8 100.43Z" fill="#9B390F"/>
<path d="M232.822 159L234 116H215V159H232.822Z" fill="#90350E"/>
<path d="M66.5 100.43L97.5 100.43L97 116.153L65 116.153L66.5 100.43Z" fill="#9B390F"/>
<path d="M66.4875 159L65.0001 116H89.0001V159H66.4875Z" fill="#90350E"/>
<path d="M103.427 235.5L103.427 187.195L137.723 186.8L137.723 235.5L103.427 235.5Z" fill="#6D280A"/>
<path d="M199 235V187H164V235H199Z" fill="#6D280A"/>
<path d="M84.5 84L80 131H219L214.5 84H84.5Z" fill="#7E2F0D"/>
<path d="M219 131H80V204H219V131Z" fill="#762E0F"/>
<path d="M116 67L115 89H182L181.5 67H116Z" fill="#9B390F"/>
<path d="M182 89H115L114.5 124.5L181 124L182 89Z" fill="#91350E"/>
<path d="M136 66L139 81.5H130.5H121L124 66L130 65L136 66Z" fill="#3E1808"/>
<path d="M161 66L158 81.5H166.5H176L173 66L167 65L161 66Z" fill="#3E1808"/>
</svg>
