<svg width="187" height="184" viewBox="0 0 187 184" fill="none" xmlns="http://www.w3.org/2000/svg">
<g filter="url(#filter0_d_4_135)">
<path d="M174.588 69H150V55H183L174.588 69Z" fill="#9B390F"/>
<path d="M179.182 103L183 55H148V103H179.182Z" fill="#86310D"/>
<path d="M12.5268 41.1112L37.1837 41.4399L36.9999 55.2227L4 54.9988L12.5268 41.1112Z" fill="#9B390F"/>
<path d="M7.81818 101L4 55H39V101H7.81818Z" fill="#86310D"/>
<path d="M51.7413 175.957L47.4271 126.195L81.7227 125.8L76.9064 175.668L51.7413 175.957Z" fill="#86310D"/>
<path d="M139.182 174L143 126H108L110.5 174H139.182Z" fill="#86310D"/>
<path d="M39.2569 23L23.9999 70H163L146.707 23H39.2569Z" fill="#7E2F0D"/>
<path d="M163 70H23.9999L35.0396 143H152.667L163 70Z" fill="#762E0F"/>
<path d="M66.354 6L58.9999 28H126L118.146 6H66.354Z" fill="#9B390F"/>
<path d="M126 28H58.9999L64.3212 64H121.02L126 28Z" fill="#91350E"/>
<path d="M79.9999 5L82.9999 20.5H74.4999H64.9999L67.9999 5L73.9999 4L79.9999 5Z" fill="#3E1808"/>
<path d="M105 5L102 20.5H110.5H120L117 5L111 4L105 5Z" fill="#3E1808"/>
</g>
<defs>
<filter id="filter0_d_4_135" x="-1" y="0" width="188" height="188" filterUnits="userSpaceOnUse" color-interpolation-filters="sRGB">
<feFlood flood-opacity="0" result="BackgroundImageFix"/>
<feColorMatrix in="SourceAlpha" type="matrix" values="0 0 0 0 0 0 0 0 0 0 0 0 0 0 0 0 0 0 127 0" result="hardAlpha"/>
<feOffset dy="4"/>
<feGaussianBlur stdDeviation="2"/>
<feComposite in2="hardAlpha" operator="out"/>
<feColorMatrix type="matrix" values="0 0 0 0 0 0 0 0 0 0 0 0 0 0 0 0 0 0 0.25 0"/>
<feBlend mode="normal" in2="BackgroundImageFix" result="effect1_dropShadow_4_135"/>
<feBlend mode="normal" in="SourceGraphic" in2="effect1_dropShadow_4_135" result="shape"/>
</filter>
</defs>
</svg>
