<svg width="200" height="200" viewBox="0 0 200 200" fill="none" xmlns="http://www.w3.org/2000/svg">
<path d="M56.5 64.5L146.5 64L115 114H17L56.5 64.5Z" fill="#FFB800"/>
<path d="M115 114L146.5 64L148.5 105L115 160V114Z" fill="#E3A609"/>
<path d="M17 114H115V160H17V114Z" fill="#E7A808"/>
<path d="M77.7398 133.316L104.962 120.709L109.036 133.148L84.5919 144.469L77.7398 133.316Z" fill="#1E1E1E"/>
<path d="M27.4638 121L54.6855 133.609L47.8329 144.761L23.3889 133.439L27.4638 121Z" fill="#1E1E1E"/>
<path d="M50.2291 49H105.5L76.8462 90H18L50.2291 49Z" fill="#BFDBF7"/>
<path d="M115.299 49H171L145.942 90H87L115.299 49Z" fill="#BFDBF7"/>
</svg>
